<?xml version="1.0" standalone="no"?>
<!DOCTYPE svg PUBLIC "-//W3C//DTD SVG 20010904//EN"
 "http://www.w3.org/TR/2001/REC-SVG-20010904/DTD/svg10.dtd">
<svg version="1.0" xmlns="http://www.w3.org/2000/svg"
 width="50.000000pt" height="50.000000pt" viewBox="0 0 50.000000 50.000000"
 preserveAspectRatio="xMidYMid meet">

<g transform="translate(0.000000,50.000000) scale(0.100000,-0.100000)"
fill="#000000" stroke="none">
<path d="M240 480 c0 -5 -8 -10 -18 -10 -10 0 -41 -11 -68 -25 -27 -14 -57
-22 -67 -19 -15 5 -18 2 -13 -13 3 -10 -5 -40 -19 -67 -14 -27 -25 -57 -25
-67 0 -9 -6 -20 -12 -23 -10 -5 -10 -7 0 -12 6 -3 12 -14 12 -23 0 -10 11 -40
25 -67 14 -27 22 -57 19 -67 -5 -15 -2 -18 13 -13 10 3 40 -5 67 -19 27 -14
57 -25 67 -25 9 0 20 -6 23 -12 5 -11 7 -11 12 0 3 6 14 12 23 12 10 0 40 11
67 25 61 31 62 31 66 -1 4 -35 31 -53 56 -38 37 24 21 74 -24 74 -30 0 -30 4
1 64 14 27 25 57 25 67 0 9 6 20 13 23 10 5 10 7 0 12 -7 3 -13 14 -13 23 0
10 -11 40 -25 67 -14 27 -22 57 -19 67 5 15 2 18 -13 13 -10 -3 -40 5 -67 19
-27 14 -58 25 -68 25 -10 0 -18 5 -18 10 0 6 -4 10 -10 10 -5 0 -10 -4 -10
-10z m-52 -133 c22 -23 22 -24 4 -40 -17 -16 -20 -15 -42 8 -19 20 -21 27 -10
40 17 20 23 19 48 -8z m172 8 c11 -13 9 -20 -10 -40 -22 -23 -25 -24 -42 -8
-18 16 -18 17 4 40 25 27 31 28 48 8z m-70 -65 c11 -11 20 -29 20 -40 0 -26
-34 -60 -60 -60 -26 0 -60 34 -60 60 0 11 9 29 20 40 11 11 29 20 40 20 11 0
29 -9 40 -20z m-105 -139 c-23 -24 -26 -24 -42 -8 -16 16 -15 18 7 42 22 24
24 24 42 8 18 -16 18 -18 -7 -42z m172 -8 c-16 -16 -18 -15 -42 7 -24 22 -24
24 -8 42 16 18 18 18 42 -7 24 -23 24 -26 8 -42z m109 -84 c10 -17 -13 -36
-27 -22 -12 12 -4 33 11 33 5 0 12 -5 16 -11z"/>
</g>
</svg>
